<?xml version="1.0" encoding="UTF-8" standalone="no"?>
<!DOCTYPE svg PUBLIC "-//W3C//DTD SVG 1.1//EN"
 "http://www.w3.org/Graphics/SVG/1.1/DTD/svg11.dtd">
<!-- Generated by graphviz version 2.26.3 (20100126.1600)
 -->
<!-- Title: G Pages: 1 -->
<svg width="264pt" height="314pt"
 viewBox="0.00 0.00 264.00 314.00" xmlns="http://www.w3.org/2000/svg" xmlns:xlink="http://www.w3.org/1999/xlink">
<g id="graph1" class="graph" transform="scale(1 1) rotate(0) translate(4 310)">
<title>G</title>
<polygon fill="white" stroke="white" points="-4,5 -4,-310 261,-310 261,5 -4,5"/>
<g id="graph2" class="cluster"><title>cluster_Global</title>
<polyline fill="none" stroke="gray" points="152,-8 236,-8 "/>
<path fill="none" stroke="gray" d="M236,-8C242,-8 248,-14 248,-20"/>
<polyline fill="none" stroke="gray" points="248,-20 248,-286 "/>
<path fill="none" stroke="gray" d="M248,-286C248,-292 242,-298 236,-298"/>
<polyline fill="none" stroke="gray" points="236,-298 152,-298 "/>
<path fill="none" stroke="gray" d="M152,-298C146,-298 140,-292 140,-286"/>
<polyline fill="none" stroke="gray" points="140,-286 140,-20 "/>
<path fill="none" stroke="gray" d="M140,-20C140,-14 146,-8 152,-8"/>
<text text-anchor="middle" x="194" y="-284.1" font-family="Times Roman,serif" font-size="11.00" fill="gray">Global</text>
</g>
<!-- \\Connexion -->
<g id="node2" class="node"><title>\\Connexion</title>
<polygon fill="none" stroke="black" points="232,-268 156,-268 156,-232 232,-232 232,-268"/>
<text text-anchor="middle" x="194" y="-247.1" font-family="Courier,monospace" font-size="11.00">Connexion</text>
</g>
<!-- \\PDO -->
<g id="node8" class="node"><title>\\PDO</title>
<ellipse fill="none" stroke="black" cx="38" cy="-250" rx="36.977" ry="18.3848"/>
<text text-anchor="middle" x="38" y="-246.4" font-family="Times Roman,serif" font-size="14.00" fill="gray">\PDO</text>
</g>
<!-- \\Connexion&#45;&gt;\\PDO -->
<g id="edge3" class="edge"><title>\\Connexion&#45;&gt;\\PDO</title>
<path fill="none" stroke="black" d="M155.438,-250C134.408,-250 108.186,-250 85.8589,-250"/>
<polygon fill="none" stroke="black" points="85.58,-246.5 75.5799,-250 85.5799,-253.5 85.58,-246.5"/>
</g>
<!-- \\Utilisateur -->
<g id="node3" class="node"><title>\\Utilisateur</title>
<polygon fill="none" stroke="black" points="239,-214 149,-214 149,-178 239,-178 239,-214"/>
<text text-anchor="middle" x="194" y="-193.1" font-family="Courier,monospace" font-size="11.00">Utilisateur</text>
</g>
<!-- \\jour -->
<g id="node4" class="node"><title>\\jour</title>
<polygon fill="none" stroke="black" points="221,-160 167,-160 167,-124 221,-124 221,-160"/>
<text text-anchor="middle" x="194" y="-139.1" font-family="Courier,monospace" font-size="11.00">jour</text>
</g>
<!-- \\mois -->
<g id="node5" class="node"><title>\\mois</title>
<polygon fill="none" stroke="black" points="221,-106 167,-106 167,-70 221,-70 221,-106"/>
<text text-anchor="middle" x="194" y="-85.1" font-family="Courier,monospace" font-size="11.00">mois</text>
</g>
<!-- \\calendrier -->
<g id="node6" class="node"><title>\\calendrier</title>
<polygon fill="none" stroke="black" points="236,-52 152,-52 152,-16 236,-16 236,-52"/>
<text text-anchor="middle" x="194" y="-31.1" font-family="Courier,monospace" font-size="11.00">calendrier</text>
</g>
</g>
</svg>
